HIERARCHY
ROOT Hips
{
	OFFSET 0.000000 0.000000 0.000000
	CHANNELS 6 Xposition Yposition Zposition Zrotation Yrotation Xrotation 
	JOINT Spine1
	{
		OFFSET -0.013727 5.003763 -0.053727
		CHANNELS 3 Zrotation Yrotation Xrotation
		JOINT Spine2
		{
			OFFSET -0.000000 7.125302 -0.029825
			CHANNELS 3 Zrotation Yrotation Xrotation
			JOINT Chest
			{
				OFFSET -0.000001 7.550064 -0.815971
				CHANNELS 3 Zrotation Yrotation Xrotation
				JOINT Neck1
				{
					OFFSET -0.181676 26.311296 -0.553348
					CHANNELS 3 Zrotation Yrotation Xrotation
					JOINT Neck2
					{
						OFFSET -0.000003 7.709399 2.302586
						CHANNELS 3 Zrotation Yrotation Xrotation
						JOINT Head
						{
							OFFSET -0.000005 6.128912 1.953709
							CHANNELS 3 Zrotation Yrotation Xrotation
							JOINT HeadEnd
							{
								OFFSET 0.003598 16.065403 -1.835379
								CHANNELS 3 Zrotation Yrotation Xrotation
								End Site
								{
									OFFSET 0.000000 0.000000 0.000000
								}
							}
							JOINT Jaw
							{
								OFFSET 0.002637 0.475591 3.094941
								CHANNELS 3 Zrotation Yrotation Xrotation
								End Site
								{
									OFFSET 0.000000 0.000000 0.000000
								}
							}
							JOINT LeftEye
							{
								OFFSET 3.206381 5.380208 7.586883
								CHANNELS 3 Zrotation Yrotation Xrotation
								End Site
								{
									OFFSET 0.000000 0.000000 0.000000
								}
							}
							JOINT RightEye
							{
								OFFSET -3.222440 5.361867 7.558234
								CHANNELS 3 Zrotation Yrotation Xrotation
								End Site
								{
									OFFSET 0.000000 0.000000 0.000000
								}
							}
						}
					}
				}
				JOINT LeftShoulder
				{
					OFFSET 1.621652 23.237164 5.113413
					CHANNELS 3 Zrotation Yrotation Xrotation
					JOINT LeftArm
					{
						OFFSET 14.919845 0.000000 -5.502326
						CHANNELS 3 Zrotation Yrotation Xrotation
						JOINT LeftForeArm
						{
							OFFSET 28.739309 0.000003 -0.002588
							CHANNELS 3 Zrotation Yrotation Xrotation
							JOINT LeftHand
							{
								OFFSET 27.093979 -0.000003 0.002610
								CHANNELS 3 Zrotation Yrotation Xrotation
								JOINT LeftHandThumb1
								{
									OFFSET 2.276481 -1.392045 3.191413
									CHANNELS 3 Zrotation Yrotation Xrotation
									JOINT LeftHandThumb2
									{
										OFFSET 4.012841 -1.828126 1.641655
										CHANNELS 3 Zrotation Yrotation Xrotation
										JOINT LeftHandThumb3
										{
											OFFSET 2.798517 0.000001 -0.000003
											CHANNELS 3 Zrotation Yrotation Xrotation
											JOINT LeftHandThumbEnd
											{
												OFFSET 3.180790 -0.000002 0.000002
												CHANNELS 3 Zrotation Yrotation Xrotation
												End Site
												{
													OFFSET 0.000000 0.000000 0.000000
												}
											}
										}
									}
								}
								JOINT LeftHandIndex1
								{
									OFFSET 3.247554 -0.531998 2.296169
									CHANNELS 3 Zrotation Yrotation Xrotation
									JOINT LeftHandIndex2
									{
										OFFSET 6.364578 0.012062 0.178599
										CHANNELS 3 Zrotation Yrotation Xrotation
										JOINT LeftHandIndex3
										{
											OFFSET 3.662366 0.000000 0.000000
											CHANNELS 3 Zrotation Yrotation Xrotation
											JOINT LeftHandIndex4
											{
												OFFSET 2.329242 0.000002 0.000004
												CHANNELS 3 Zrotation Yrotation Xrotation
												JOINT LeftHandIndexEnd
												{
													OFFSET 2.759619 -0.180539 -0.113024
													CHANNELS 3 Zrotation Yrotation Xrotation
													End Site
													{
														OFFSET 0.000000 0.000000 0.000000
													}
												}
											}
										}
									}
								}
								JOINT LeftHandMiddle1
								{
									OFFSET 3.163499 0.240981 1.000332
									CHANNELS 3 Zrotation Yrotation Xrotation
									JOINT LeftHandMiddle2
									{
										OFFSET 6.190778 -0.259276 -1.002548
										CHANNELS 3 Zrotation Yrotation Xrotation
										JOINT LeftHandMiddle3
										{
											OFFSET 4.356523 -0.000006 0.000000
											CHANNELS 3 Zrotation Yrotation Xrotation
											JOINT LeftHandMiddle4
											{
												OFFSET 2.996875 -0.000006 0.000001
												CHANNELS 3 Zrotation Yrotation Xrotation
												JOINT LeftHandMiddleEnd
												{
													OFFSET 2.304294 -0.294571 -0.031740
													CHANNELS 3 Zrotation Yrotation Xrotation
													End Site
													{
														OFFSET 0.000000 0.000000 0.000000
													}
												}
											}
										}
									}
								}
								JOINT LeftHandRing1
								{
									OFFSET 2.882642 -0.053650 -0.322543
									CHANNELS 3 Zrotation Yrotation Xrotation
									JOINT LeftHandRing2
									{
										OFFSET 5.854542 -0.486203 -1.373841
										CHANNELS 3 Zrotation Yrotation Xrotation
										JOINT LeftHandRing3
										{
											OFFSET 4.350581 0.000000 0.000004
											CHANNELS 3 Zrotation Yrotation Xrotation
											JOINT LeftHandRing4
											{
												OFFSET 2.651325 0.000008 0.000004
												CHANNELS 3 Zrotation Yrotation Xrotation
												JOINT LeftHandRingEnd
												{
													OFFSET 1.936111 0.077685 -0.000070
													CHANNELS 3 Zrotation Yrotation Xrotation
													End Site
													{
														OFFSET 0.000000 0.000000 0.000000
													}
												}
											}
										}
									}
								}
								JOINT LeftHandPinky1
								{
									OFFSET 2.865500 -0.310004 -1.600378
									CHANNELS 3 Zrotation Yrotation Xrotation
									JOINT LeftHandPinky2
									{
										OFFSET 5.087853 -1.331141 -1.771231
										CHANNELS 3 Zrotation Yrotation Xrotation
										JOINT LeftHandPinky3
										{
											OFFSET 3.070975 0.000003 0.000001
											CHANNELS 3 Zrotation Yrotation Xrotation
											JOINT LeftHandPinky4
											{
												OFFSET 1.549668 0.000001 0.000001
												CHANNELS 3 Zrotation Yrotation Xrotation
												JOINT LeftHandPinkyEnd
												{
													OFFSET 1.944894 -0.157802 0.057219
													CHANNELS 3 Zrotation Yrotation Xrotation
													End Site
													{
														OFFSET 0.000000 0.000000 0.000000
													}
												}
											}
										}
									}
								}
							}
						}
					}
				}
				JOINT RightShoulder
				{
					OFFSET -1.380118 23.180307 5.214158
					CHANNELS 3 Zrotation Yrotation Xrotation
					JOINT RightArm
					{
						OFFSET -15.037197 0.000013 -5.545605
						CHANNELS 3 Zrotation Yrotation Xrotation
						JOINT RightForeArm
						{
							OFFSET -28.736639 0.000003 -0.002597
							CHANNELS 3 Zrotation Yrotation Xrotation
							JOINT RightHand
							{
								OFFSET -27.133619 -0.000000 0.002613
								CHANNELS 3 Zrotation Yrotation Xrotation
								JOINT RightHandThumb1
								{
									OFFSET -2.274037 -1.383990 3.163127
									CHANNELS 3 Zrotation Yrotation Xrotation
									JOINT RightHandThumb2
									{
										OFFSET -4.011429 -1.827467 1.640915
										CHANNELS 3 Zrotation Yrotation Xrotation
										JOINT RightHandThumb3
										{
											OFFSET -2.794934 -0.000004 -0.000003
											CHANNELS 3 Zrotation Yrotation Xrotation
											JOINT RightHandThumbEnd
											{
												OFFSET -3.183855 0.000003 -0.000001
												CHANNELS 3 Zrotation Yrotation Xrotation
												End Site
												{
													OFFSET 0.000000 0.000000 0.000000
												}
											}
										}
									}
								}
								JOINT RightHandIndex1
								{
									OFFSET -3.253270 -0.520060 2.282866
									CHANNELS 3 Zrotation Yrotation Xrotation
									JOINT RightHandIndex2
									{
										OFFSET -6.341918 0.012473 0.178265
										CHANNELS 3 Zrotation Yrotation Xrotation
										JOINT RightHandIndex3
										{
											OFFSET -3.654875 -0.000008 -0.000000
											CHANNELS 3 Zrotation Yrotation Xrotation
											JOINT RightHandIndex4
											{
												OFFSET -2.327586 -0.000000 0.000000
												CHANNELS 3 Zrotation Yrotation Xrotation
												JOINT RightHandIndexEnd
												{
													OFFSET -2.761789 -0.180657 -0.113079
													CHANNELS 3 Zrotation Yrotation Xrotation
													End Site
													{
														OFFSET 0.000000 0.000000 0.000000
													}
												}
											}
										}
									}
								}
								JOINT RightHandMiddle1
								{
									OFFSET -3.168107 0.246593 1.001031
									CHANNELS 3 Zrotation Yrotation Xrotation
									JOINT RightHandMiddle2
									{
										OFFSET -6.180830 -0.258836 -1.000896
										CHANNELS 3 Zrotation Yrotation Xrotation
										JOINT RightHandMiddle3
										{
											OFFSET -4.348906 -0.000000 -0.000001
											CHANNELS 3 Zrotation Yrotation Xrotation
											JOINT RightHandMiddle4
											{
												OFFSET -3.000243 -0.000003 -0.000003
												CHANNELS 3 Zrotation Yrotation Xrotation
												JOINT RightHandMiddleEnd
												{
													OFFSET -2.302518 -0.294372 -0.031706
													CHANNELS 3 Zrotation Yrotation Xrotation
													End Site
													{
														OFFSET 0.000000 0.000000 0.000000
													}
												}
											}
										}
									}
								}
								JOINT RightHandRing1
								{
									OFFSET -2.885693 -0.067952 -0.308858
									CHANNELS 3 Zrotation Yrotation Xrotation
									JOINT RightHandRing2
									{
										OFFSET -5.854197 -0.486132 -1.373732
										CHANNELS 3 Zrotation Yrotation Xrotation
										JOINT RightHandRing3
										{
											OFFSET -4.338814 -0.000004 -0.000001
											CHANNELS 3 Zrotation Yrotation Xrotation
											JOINT RightHandRing4
											{
												OFFSET -2.654906 -0.000004 0.000003
												CHANNELS 3 Zrotation Yrotation Xrotation
												JOINT RightHandRingEnd
												{
													OFFSET -1.933571 0.077525 -0.000052
													CHANNELS 3 Zrotation Yrotation Xrotation
													End Site
													{
														OFFSET 0.000000 0.000000 0.000000
													}
												}
											}
										}
									}
								}
								JOINT RightHandPinky1
								{
									OFFSET -2.866429 -0.342798 -1.584145
									CHANNELS 3 Zrotation Yrotation Xrotation
									JOINT RightHandPinky2
									{
										OFFSET -5.091370 -1.332054 -1.772385
										CHANNELS 3 Zrotation Yrotation Xrotation
										JOINT RightHandPinky3
										{
											OFFSET -3.062666 -0.000007 0.000000
											CHANNELS 3 Zrotation Yrotation Xrotation
											JOINT RightHandPinky4
											{
												OFFSET -1.546526 0.000006 -0.000003
												CHANNELS 3 Zrotation Yrotation Xrotation
												JOINT RightHandPinkyEnd
												{
													OFFSET -1.945122 -0.157721 0.057211
													CHANNELS 3 Zrotation Yrotation Xrotation
													End Site
													{
														OFFSET 0.000000 0.000000 0.000000
													}
												}
											}
										}
									}
								}
							}
						}
					}
				}
			}
		}
	}
	JOINT LeftLeg
	{
		OFFSET 10.043214 -8.434527 2.595655
		CHANNELS 3 Zrotation Yrotation Xrotation
		JOINT LeftShin
		{
			OFFSET -0.000001 -43.221752 -0.802913
			CHANNELS 3 Zrotation Yrotation Xrotation
			JOINT LeftFoot
			{
				OFFSET 0.000002 -42.155094 -3.481522
				CHANNELS 3 Zrotation Yrotation Xrotation
				JOINT LeftToeBase
				{
					OFFSET -0.000000 -5.059475 13.231529
					CHANNELS 3 Zrotation Yrotation Xrotation
					JOINT LeftToeEnd
					{
						OFFSET -0.009607 -1.647615 6.513017
						CHANNELS 3 Zrotation Yrotation Xrotation
						End Site
						{
							OFFSET 0.000000 0.000000 0.000000
						}
					}
				}
			}
		}
	}
	JOINT RightLeg
	{
		OFFSET -10.047277 -8.295259 2.620317
		CHANNELS 3 Zrotation Yrotation Xrotation
		JOINT RightShin
		{
			OFFSET 0.000000 -43.362209 -0.805556
			CHANNELS 3 Zrotation Yrotation Xrotation
			JOINT RightFoot
			{
				OFFSET 0.000002 -42.117393 -3.478398
				CHANNELS 3 Zrotation Yrotation Xrotation
				JOINT RightToeBase
				{
					OFFSET -0.000001 -5.079609 13.284196
					CHANNELS 3 Zrotation Yrotation Xrotation
					JOINT RightToeEnd
					{
						OFFSET 0.009532 -1.634383 6.460591
						CHANNELS 3 Zrotation Yrotation Xrotation
						End Site
						{
							OFFSET 0.000000 0.000000 0.000000
						}
					}
				}
			}
		}
	}
}
MOTION
Frames: 4
Frame Time: 0.033333
-25.755468 100.037193 21.240097 18.046288 -50.270832 -15.873780 2.023591 0.036334 1.097409 0.224476 0.618029 -4.562822 -5.524621 -1.371693 10.824403 -14.781970 10.500050 7.060354 0.626901 7.101478 -3.560104 -6.782803 8.637793 9.295238 0.000076 -0.000023 0.000005 -0.007180 0.076139 -0.275127 0.898659 -3.669690 -10.882581 -0.923441 3.814147 -11.016913 2.397230 -10.050058 6.982494 -49.464390 -30.374065 -28.333302 177.900208 -35.062771 -179.480804 8.745749 -16.830132 1.797145 -5.882104 9.861277 0.702590 -10.936860 -0.360574 7.156199 0.000001 8.774812 -0.000001 -15.609220 17.428034 7.837248 -1.844030 2.498503 -2.507277 -10.163589 4.678941 4.621105 -20.975994 -0.000003 0.000004 -21.226250 2.451694 -3.593992 0.000000 -0.000004 -0.000000 -1.362680 2.240797 -0.746324 -21.334892 0.584907 3.008322 -13.821197 -0.000002 0.000004 -23.887131 -0.249077 -0.839479 -60.426296 2.455180 -0.902089 -0.294026 1.679685 0.833255 -14.218190 0.093215 1.300581 -34.211998 -0.287563 0.967174 -20.033178 0.964535 1.212843 -0.000000 0.000001 0.000001 -3.440385 0.788234 0.501658 -15.928167 -3.167307 2.999703 -6.338818 0.000000 0.000002 -18.123411 3.648177 -4.905659 -0.000003 0.000002 -0.000002 -31.353344 13.903416 -1.771581 36.111813 68.409729 -25.223476 -177.078430 53.035164 -177.307678 -0.464211 -4.434997 -5.976046 2.243542 -5.255033 -3.180154 14.282877 -0.826593 6.952497 -0.000001 -12.690588 0.000001 16.217464 -16.435925 2.050112 1.665664 -1.955920 -2.878295 4.727796 -4.170584 4.993919 11.020513 0.000002 -0.000002 12.109035 -3.735707 -2.866779 -0.000000 -0.000001 0.000000 1.291982 -1.928548 -1.498087 14.800114 0.567468 3.865603 14.242553 -1.341733 -6.660646 19.631941 0.143925 -0.648242 50.188679 -0.653403 -6.009471 0.353029 -1.511148 -0.031940 20.222771 3.684304 2.316627 18.787247 0.000004 -0.000000 10.751612 -0.479867 1.397904 -0.000000 -0.000002 -0.000000 3.273805 0.305947 -0.580111 21.486795 11.830362 2.266129 8.162918 0.000002 -0.000000 18.399057 -3.798979 -4.940567 0.000003 -0.000001 -0.000001 7.237031 14.226308 10.060197 -0.144076 -2.203524 64.599251 -7.538465 2.123469 1.166055 1.819870 -1.997617 -6.227044 0.000000 0.000000 0.000003 -10.819861 -41.052044 -22.820974 -0.444008 -1.977084 36.765907 3.444669 -15.814898 -1.838940 -1.495921 0.928350 -0.636915 -0.000000 0.000001 -0.000001 
-24.665714 99.635521 19.900116 13.409581 -43.690342 -11.471889 1.599634 -0.155576 1.386934 -0.062438 0.213589 -4.615654 -5.761971 -2.292708 11.494658 -11.246344 9.096744 8.868064 0.200693 5.803831 -3.630937 -6.222481 6.446672 9.503279 0.000077 -0.000022 0.000007 -0.015170 0.036408 -0.277131 0.892812 -3.710985 -10.886660 -0.937991 3.789161 -11.014446 4.369074 -11.897843 7.142366 -50.132778 -36.140163 -25.962725 177.780319 -34.632751 -179.162674 8.131513 -15.213827 -0.074894 -5.882102 9.861278 0.702591 -10.936861 -0.360575 7.156198 0.000002 8.774813 -0.000001 -15.716000 17.685534 7.559947 -1.844031 2.498501 -2.507276 -10.163591 4.678939 4.621103 -20.975998 -0.000006 0.000003 -21.226255 2.451692 -3.593992 -0.000000 -0.000005 -0.000001 -1.362680 2.240796 -0.746322 -21.334898 0.584908 3.008320 -13.821198 -0.000002 0.000003 -23.887135 -0.249077 -0.839480 -59.661110 2.400437 -1.023587 -0.294024 1.679686 0.833255 -14.218195 0.093214 1.300579 -34.212013 -0.287564 0.967171 -20.033184 0.964535 1.212842 -0.000001 0.000001 -0.000000 -3.440386 0.788231 0.501653 -15.928169 -3.167307 2.999701 -6.338818 -0.000001 0.000001 -18.123415 3.648178 -4.905658 -0.000003 0.000003 -0.000001 -30.852032 13.550656 -0.232352 41.911983 65.735497 -23.682102 -178.067825 50.454327 -177.874619 -0.204899 -4.511595 -5.533267 2.243540 -5.255031 -3.180157 14.282875 -0.826595 6.952495 -0.000003 -12.690591 0.000002 16.130774 -16.476393 2.120070 1.665665 -1.955919 -2.878296 4.727795 -4.170583 4.993918 11.020513 0.000002 -0.000002 12.109034 -3.735710 -2.866779 0.000000 -0.000002 0.000000 1.291985 -1.928547 -1.498088 14.800114 0.567466 3.865603 14.242554 -1.341734 -6.660649 19.631941 0.143926 -0.648245 49.894073 -0.613226 -5.956987 0.353028 -1.511149 -0.031941 20.222769 3.684303 2.316626 18.787245 0.000005 -0.000001 10.751612 -0.479870 1.397903 -0.000000 0.000000 0.000000 3.273803 0.305947 -0.580109 21.486788 11.830359 2.266128 8.162915 0.000000 -0.000001 18.399052 -3.798978 -4.940569 0.000003 0.000002 -0.000001 9.979265 14.461904 10.948692 -0.098489 -2.057002 54.074120 -8.391090 3.016103 3.875766 1.860813 -2.036197 -5.941017 0.000001 0.000000 0.000002 -9.203420 -43.356945 -23.604467 -0.465612 -1.975798 38.048653 3.644331 -17.795300 -1.030166 -1.498624 0.929365 -0.487897 0.000000 0.000000 -0.000001 
-23.398399 99.292137 18.637449 9.918586 -36.855152 -8.139761 1.289872 -0.285634 1.732056 -0.297193 -0.189839 -4.609750 -5.730816 -3.081154 12.243598 -7.798505 7.507363 10.574419 -0.284388 4.394124 -3.675729 -5.638716 4.131475 9.763278 0.000077 -0.000024 0.000005 -0.025994 0.034220 -0.277683 0.891536 -3.739941 -10.888143 -0.949166 3.795769 -11.003909 6.271211 -13.610459 7.170331 -52.547729 -41.096378 -22.326698 177.827103 -34.604710 -178.930542 7.841347 -13.602693 -1.572791 -5.882100 9.861279 0.702591 -10.936859 -0.360575 7.156199 0.000000 8.774812 -0.000001 -15.844111 17.870893 7.235291 -1.844031 2.498502 -2.507273 -10.163588 4.678940 4.621108 -20.975992 -0.000001 0.000005 -21.226246 2.451692 -3.593992 0.000001 -0.000005 -0.000000 -1.362681 2.240797 -0.746321 -21.334887 0.584906 3.008322 -13.821194 -0.000000 0.000004 -23.887119 -0.249078 -0.839481 -59.252209 2.348458 -1.119826 -0.294025 1.679686 0.833255 -14.218189 0.093214 1.300581 -34.211998 -0.287564 0.967172 -20.033175 0.964537 1.212843 -0.000001 0.000001 0.000001 -3.440385 0.788233 0.501657 -15.928164 -3.167306 2.999704 -6.338815 0.000001 0.000003 -18.123411 3.648179 -4.905659 -0.000003 0.000003 -0.000001 -29.908253 13.506414 1.611458 47.915428 62.681252 -21.845528 -178.891098 47.593761 -178.613113 -0.071990 -4.230221 -4.971371 2.243537 -5.255033 -3.180155 14.282877 -0.826593 6.952497 -0.000003 -12.690591 0.000002 16.080166 -16.528177 2.146265 1.665664 -1.955919 -2.878297 4.727797 -4.170582 4.993919 11.020512 0.000002 0.000001 12.109031 -3.735713 -2.866778 0.000000 0.000000 -0.000000 1.291983 -1.928549 -1.498089 14.800111 0.567469 3.865606 14.242553 -1.341734 -6.660646 19.631939 0.143925 -0.648240 49.507404 -0.608897 -6.004295 0.353030 -1.511148 -0.031940 20.222771 3.684307 2.316631 18.787247 0.000004 0.000003 10.751610 -0.479868 1.397905 -0.000000 -0.000001 -0.000000 3.273804 0.305947 -0.580110 21.486792 11.830363 2.266134 8.162918 0.000001 0.000001 18.399054 -3.798982 -4.940565 0.000003 0.000001 -0.000001 12.395264 15.391600 11.258050 -0.079501 -1.836410 44.063862 -9.418136 3.353617 7.896204 1.876613 -2.022273 -6.402461 0.000001 0.000000 0.000000 -7.644778 -45.615551 -24.883320 -0.493967 -1.911244 39.446674 3.855264 -19.509836 0.580352 -1.503992 0.932819 -0.683754 0.000000 0.000000 -0.000001 
-22.021086 99.012375 17.433907 7.127895 -29.843143 -5.462766 1.151585 -0.405316 2.049882 -0.415125 -0.611015 -4.568272 -5.399224 -3.762226 12.990162 -4.466757 5.809677 12.115177 -0.733774 2.850512 -3.689870 -5.009784 1.858489 9.962432 0.000077 -0.000024 0.000007 -0.007481 -0.004675 -0.262535 0.903920 -3.779506 -10.877278 -0.925290 3.770321 -10.971129 8.137292 -15.062494 7.114526 -56.988525 -45.186981 -17.250402 177.959641 -34.787048 -178.780441 7.943762 -12.141711 -2.856803 -5.882102 9.861279 0.702588 -10.936858 -0.360574 7.156199 0.000000 8.774814 -0.000001 -15.970226 17.977777 6.937670 -1.844032 2.498503 -2.507277 -10.163590 4.678940 4.621106 -20.975992 0.000001 0.000002 -21.226254 2.451692 -3.593995 0.000001 -0.000004 -0.000000 -1.362679 2.240797 -0.746324 -21.334887 0.584910 3.008318 -13.821197 0.000000 0.000001 -23.887131 -0.249079 -0.839483 -59.251846 2.333873 -1.234245 -0.294024 1.679686 0.833255 -14.218194 0.093215 1.300577 -34.212006 -0.287562 0.967168 -20.033182 0.964536 1.212840 0.000000 0.000001 0.000000 -3.440385 0.788232 0.501654 -15.928167 -3.167305 2.999704 -6.338817 -0.000001 0.000001 -18.123415 3.648178 -4.905663 -0.000004 0.000003 -0.000001 -28.424030 13.693147 3.733815 53.446957 59.335804 -19.963694 -179.492218 44.510292 -179.339355 -0.204107 -3.554437 -4.518298 2.243540 -5.255033 -3.180155 14.282875 -0.826594 6.952496 -0.000002 -12.690586 0.000001 16.051573 -16.586878 2.193327 1.665665 -1.955921 -2.878296 4.727794 -4.170584 4.993918 11.020512 0.000003 -0.000001 12.109031 -3.735710 -2.866778 0.000000 0.000000 -0.000001 1.291983 -1.928547 -1.498087 14.800114 0.567466 3.865603 14.242553 -1.341735 -6.660648 19.631937 0.143924 -0.648244 49.216717 -0.650025 -6.047822 0.353028 -1.511150 -0.031940 20.222767 3.684305 2.316628 18.787247 0.000004 -0.000000 10.751611 -0.479869 1.397904 0.000000 0.000001 0.000000 3.273805 0.305946 -0.580110 21.486790 11.830360 2.266129 8.162917 0.000001 -0.000000 18.399054 -3.798979 -4.940566 0.000003 0.000000 -0.000001 14.415424 16.862534 11.191951 -0.121661 -1.549491 35.118256 -10.892993 2.744888 12.516850 1.868617 -1.952875 -8.273716 0.000000 0.000000 0.000001 -6.102134 -47.833836 -26.335255 -0.504871 -1.790119 40.542648 3.930664 -20.899187 2.687977 -1.514529 0.925436 -1.082480 0.000000 0.000000 -0.000001 
